{
 "cells": [
  {
   "cell_type": "code",
   "execution_count": 9,
   "outputs": [],
   "source": [
    "import shutil\n",
    "import subprocess\n",
    "from pathlib import Path"
   ],
   "metadata": {
    "collapsed": false
   }
  },
  {
   "cell_type": "code",
   "execution_count": 44,
   "outputs": [
    {
     "name": "stdout",
     "output_type": "stream",
     "text": [
      "ffmpeg -i F:\\Zdjęcia\\Wrak_Race\\20150913_133610.mp4 -i D:\\Windows\\Pulpit\\Zdjęcia\\heif\\Wrak_Race_heif\\20150913_133610.mp4 -map 1 -map_metadata 0 -c copy D:\\Windows\\Pulpit\\Zdjęcia\\heif\\Wrak_Race_heif\\20150913_133610_fixed.mp4\n",
      "\n",
      "ffmpeg version 6.0-full_build-www.gyan.dev Copyright (c) 2000-2023 the FFmpeg developers\n",
      "  built with gcc 12.2.0 (Rev10, Built by MSYS2 project)\n",
      "  configuration: --enable-gpl --enable-version3 --enable-static --disable-w32threads --disable-autodetect --enable-fontconfig --enable-iconv --enable-gnutls --enable-libxml2 --enable-gmp --enable-bzlib --enable-lzma --enable-libsnappy --enable-zlib --enable-librist --enable-libsrt --enable-libssh --enable-libzmq --enable-avisynth --enable-libbluray --enable-libcaca --enable-sdl2 --enable-libaribb24 --enable-libdav1d --enable-libdavs2 --enable-libuavs3d --enable-libzvbi --enable-librav1e --enable-libsvtav1 --enable-libwebp --enable-libx264 --enable-libx265 --enable-libxavs2 --enable-libxvid --enable-libaom --enable-libjxl --enable-libopenjpeg --enable-libvpx --enable-mediafoundation --enable-libass --enable-frei0r --enable-libfreetype --enable-libfribidi --enable-liblensfun --enable-libvidstab --enable-libvmaf --enable-libzimg --enable-amf --enable-cuda-llvm --enable-cuvid --enable-ffnvcodec --enable-nvdec --enable-nvenc --enable-d3d11va --enable-dxva2 --enable-libvpl --enable-libshaderc --enable-vulkan --enable-libplacebo --enable-opencl --enable-libcdio --enable-libgme --enable-libmodplug --enable-libopenmpt --enable-libopencore-amrwb --enable-libmp3lame --enable-libshine --enable-libtheora --enable-libtwolame --enable-libvo-amrwbenc --enable-libilbc --enable-libgsm --enable-libopencore-amrnb --enable-libopus --enable-libspeex --enable-libvorbis --enable-ladspa --enable-libbs2b --enable-libflite --enable-libmysofa --enable-librubberband --enable-libsoxr --enable-chromaprint\n",
      "  libavutil      58.  2.100 / 58.  2.100\n",
      "  libavcodec     60.  3.100 / 60.  3.100\n",
      "  libavformat    60.  3.100 / 60.  3.100\n",
      "  libavdevice    60.  1.100 / 60.  1.100\n",
      "  libavfilter     9.  3.100 /  9.  3.100\n",
      "  libswscale      7.  1.100 /  7.  1.100\n",
      "  libswresample   4. 10.100 /  4. 10.100\n",
      "  libpostproc    57.  1.100 / 57.  1.100\n",
      "Input #0, mov,mp4,m4a,3gp,3g2,mj2, from 'F:\\ZdjÄ™cia\\Wrak_Race\\20150913_133610.mp4':\n",
      "  Metadata:\n",
      "    major_brand     : isom\n",
      "    minor_version   : 0\n",
      "    compatible_brands: isom3gp4\n",
      "    creation_time   : 2015-09-13T11:37:58.000000Z\n",
      "  Duration: 00:01:47.48, start: 0.000000, bitrate: 3191 kb/s\n",
      "  Stream #0:0[0x1](eng): Video: h264 (Baseline) (avc1 / 0x31637661), yuv420p(progressive), 640x480, 3070 kb/s, 29.93 fps, 29.92 tbr, 90k tbn (default)\n",
      "    Metadata:\n",
      "      creation_time   : 2015-09-13T11:37:58.000000Z\n",
      "      handler_name    : VideoHandle\n",
      "      vendor_id       : [0][0][0][0]\n",
      "      encoder         :                                \n",
      "  Stream #0:1[0x2](eng): Audio: aac (LC) (mp4a / 0x6134706D), 48000 Hz, stereo, fltp, 125 kb/s (default)\n",
      "    Metadata:\n",
      "      creation_time   : 2015-09-13T11:37:58.000000Z\n",
      "      handler_name    : SoundHandle\n",
      "      vendor_id       : [0][0][0][0]\n",
      "Input #1, mov,mp4,m4a,3gp,3g2,mj2, from 'D:\\Windows\\Pulpit\\ZdjÄ™cia\\heif\\Wrak_Race_heif\\20150913_133610.mp4':\n",
      "  Metadata:\n",
      "    major_brand     : isom\n",
      "    minor_version   : 0\n",
      "    compatible_brands: isom3gp4\n",
      "    creation_time   : 2015-09-13T11:37:58.000000Z\n",
      "  Duration: 00:01:47.48, start: 0.000000, bitrate: 3191 kb/s\n",
      "  Stream #1:0[0x1](eng): Video: h264 (Baseline) (avc1 / 0x31637661), yuv420p(progressive), 640x480, 3070 kb/s, 29.93 fps, 29.92 tbr, 90k tbn (default)\n",
      "    Metadata:\n",
      "      creation_time   : 2015-09-13T11:37:58.000000Z\n",
      "      handler_name    : VideoHandle\n",
      "      vendor_id       : [0][0][0][0]\n",
      "      encoder         :                                \n",
      "  Stream #1:1[0x2](eng): Audio: aac (LC) (mp4a / 0x6134706D), 48000 Hz, stereo, fltp, 125 kb/s (default)\n",
      "    Metadata:\n",
      "      creation_time   : 2015-09-13T11:37:58.000000Z\n",
      "      handler_name    : SoundHandle\n",
      "      vendor_id       : [0][0][0][0]\n",
      "Output #0, mp4, to 'D:\\Windows\\Pulpit\\ZdjÄ™cia\\heif\\Wrak_Race_heif\\20150913_133610_fixed.mp4':\n",
      "  Metadata:\n",
      "    major_brand     : isom\n",
      "    minor_version   : 0\n",
      "    compatible_brands: isom3gp4\n",
      "    creation_time   : 2015-09-13T11:37:58.000000Z\n",
      "    encoder         : Lavf60.3.100\n",
      "  Stream #0:0(eng): Video: h264 (Baseline) (avc1 / 0x31637661), yuv420p(progressive), 640x480, q=2-31, 3070 kb/s, 29.93 fps, 29.92 tbr, 90k tbn (default)\n",
      "    Metadata:\n",
      "      creation_time   : 2015-09-13T11:37:58.000000Z\n",
      "      handler_name    : VideoHandle\n",
      "      vendor_id       : [0][0][0][0]\n",
      "      encoder         :                                \n",
      "  Stream #0:1(eng): Audio: aac (LC) (mp4a / 0x6134706D), 48000 Hz, stereo, fltp, 125 kb/s (default)\n",
      "    Metadata:\n",
      "      creation_time   : 2015-09-13T11:37:58.000000Z\n",
      "      handler_name    : SoundHandle\n",
      "      vendor_id       : [0][0][0][0]\n",
      "Stream mapping:\n",
      "  Stream #1:0 -> #0:0 (copy)\n",
      "  Stream #1:1 -> #0:1 (copy)\n",
      "Press [q] to stop, [?] for help\n",
      "frame=    0 fps=0.0 q=-1.0 size=       0kB time=00:00:00.00 bitrate=N/A speed=N/A    \n",
      "frame= 3208 fps=0.0 q=-1.0 Lsize=   41933kB time=00:01:47.46 bitrate=3196.6kbits/s speed= 254x    \n",
      "video:40177kB audio:1641kB subtitle:0kB other streams:0kB global headers:0kB muxing overhead: 0.275360%\n",
      "\n",
      "ffmpeg -i F:\\Zdjęcia\\Wrak_Race\\20150913_134011.mp4 -i D:\\Windows\\Pulpit\\Zdjęcia\\heif\\Wrak_Race_heif\\20150913_134011.mp4 -map 1 -map_metadata 0 -c copy D:\\Windows\\Pulpit\\Zdjęcia\\heif\\Wrak_Race_heif\\20150913_134011_fixed.mp4\n",
      "\n",
      "ffmpeg version 6.0-full_build-www.gyan.dev Copyright (c) 2000-2023 the FFmpeg developers\n",
      "  built with gcc 12.2.0 (Rev10, Built by MSYS2 project)\n",
      "  configuration: --enable-gpl --enable-version3 --enable-static --disable-w32threads --disable-autodetect --enable-fontconfig --enable-iconv --enable-gnutls --enable-libxml2 --enable-gmp --enable-bzlib --enable-lzma --enable-libsnappy --enable-zlib --enable-librist --enable-libsrt --enable-libssh --enable-libzmq --enable-avisynth --enable-libbluray --enable-libcaca --enable-sdl2 --enable-libaribb24 --enable-libdav1d --enable-libdavs2 --enable-libuavs3d --enable-libzvbi --enable-librav1e --enable-libsvtav1 --enable-libwebp --enable-libx264 --enable-libx265 --enable-libxavs2 --enable-libxvid --enable-libaom --enable-libjxl --enable-libopenjpeg --enable-libvpx --enable-mediafoundation --enable-libass --enable-frei0r --enable-libfreetype --enable-libfribidi --enable-liblensfun --enable-libvidstab --enable-libvmaf --enable-libzimg --enable-amf --enable-cuda-llvm --enable-cuvid --enable-ffnvcodec --enable-nvdec --enable-nvenc --enable-d3d11va --enable-dxva2 --enable-libvpl --enable-libshaderc --enable-vulkan --enable-libplacebo --enable-opencl --enable-libcdio --enable-libgme --enable-libmodplug --enable-libopenmpt --enable-libopencore-amrwb --enable-libmp3lame --enable-libshine --enable-libtheora --enable-libtwolame --enable-libvo-amrwbenc --enable-libilbc --enable-libgsm --enable-libopencore-amrnb --enable-libopus --enable-libspeex --enable-libvorbis --enable-ladspa --enable-libbs2b --enable-libflite --enable-libmysofa --enable-librubberband --enable-libsoxr --enable-chromaprint\n",
      "  libavutil      58.  2.100 / 58.  2.100\n",
      "  libavcodec     60.  3.100 / 60.  3.100\n",
      "  libavformat    60.  3.100 / 60.  3.100\n",
      "  libavdevice    60.  1.100 / 60.  1.100\n",
      "  libavfilter     9.  3.100 /  9.  3.100\n",
      "  libswscale      7.  1.100 /  7.  1.100\n",
      "  libswresample   4. 10.100 /  4. 10.100\n",
      "  libpostproc    57.  1.100 / 57.  1.100\n",
      "Input #0, mov,mp4,m4a,3gp,3g2,mj2, from 'F:\\ZdjÄ™cia\\Wrak_Race\\20150913_134011.mp4':\n",
      "  Metadata:\n",
      "    major_brand     : isom\n",
      "    minor_version   : 0\n",
      "    compatible_brands: isom3gp4\n",
      "    creation_time   : 2015-09-13T11:40:17.000000Z\n",
      "  Duration: 00:00:04.93, start: 0.000000, bitrate: 3096 kb/s\n",
      "  Stream #0:0[0x1](eng): Video: h264 (Baseline) (avc1 / 0x31637661), yuv420p(progressive), 640x480, 3081 kb/s, 29.84 fps, 29.92 tbr, 90k tbn (default)\n",
      "    Metadata:\n",
      "      creation_time   : 2015-09-13T11:40:17.000000Z\n",
      "      handler_name    : VideoHandle\n",
      "      vendor_id       : [0][0][0][0]\n",
      "      encoder         :                                \n",
      "  Stream #0:1[0x2](eng): Audio: aac (LC) (mp4a / 0x6134706D), 48000 Hz, stereo, fltp, 123 kb/s (default)\n",
      "    Metadata:\n",
      "      creation_time   : 2015-09-13T11:40:17.000000Z\n",
      "      handler_name    : SoundHandle\n",
      "      vendor_id       : [0][0][0][0]\n",
      "Input #1, mov,mp4,m4a,3gp,3g2,mj2, from 'D:\\Windows\\Pulpit\\ZdjÄ™cia\\heif\\Wrak_Race_heif\\20150913_134011.mp4':\n",
      "  Metadata:\n",
      "    major_brand     : isom\n",
      "    minor_version   : 0\n",
      "    compatible_brands: isom3gp4\n",
      "    creation_time   : 2015-09-13T11:40:17.000000Z\n",
      "  Duration: 00:00:04.93, start: 0.000000, bitrate: 3096 kb/s\n",
      "  Stream #1:0[0x1](eng): Video: h264 (Baseline) (avc1 / 0x31637661), yuv420p(progressive), 640x480, 3081 kb/s, 29.84 fps, 29.92 tbr, 90k tbn (default)\n",
      "    Metadata:\n",
      "      creation_time   : 2015-09-13T11:40:17.000000Z\n",
      "      handler_name    : VideoHandle\n",
      "      vendor_id       : [0][0][0][0]\n",
      "      encoder         :                                \n",
      "  Stream #1:1[0x2](eng): Audio: aac (LC) (mp4a / 0x6134706D), 48000 Hz, stereo, fltp, 123 kb/s (default)\n",
      "    Metadata:\n",
      "      creation_time   : 2015-09-13T11:40:17.000000Z\n",
      "      handler_name    : SoundHandle\n",
      "      vendor_id       : [0][0][0][0]\n",
      "Output #0, mp4, to 'D:\\Windows\\Pulpit\\ZdjÄ™cia\\heif\\Wrak_Race_heif\\20150913_134011_fixed.mp4':\n",
      "  Metadata:\n",
      "    major_brand     : isom\n",
      "    minor_version   : 0\n",
      "    compatible_brands: isom3gp4\n",
      "    creation_time   : 2015-09-13T11:40:17.000000Z\n",
      "    encoder         : Lavf60.3.100\n",
      "  Stream #0:0(eng): Video: h264 (Baseline) (avc1 / 0x31637661), yuv420p(progressive), 640x480, q=2-31, 3081 kb/s, 29.84 fps, 29.92 tbr, 90k tbn (default)\n",
      "    Metadata:\n",
      "      creation_time   : 2015-09-13T11:40:17.000000Z\n",
      "      handler_name    : VideoHandle\n",
      "      vendor_id       : [0][0][0][0]\n",
      "      encoder         :                                \n",
      "  Stream #0:1(eng): Audio: aac (LC) (mp4a / 0x6134706D), 48000 Hz, stereo, fltp, 123 kb/s (default)\n",
      "    Metadata:\n",
      "      creation_time   : 2015-09-13T11:40:17.000000Z\n",
      "      handler_name    : SoundHandle\n",
      "      vendor_id       : [0][0][0][0]\n",
      "Stream mapping:\n",
      "  Stream #1:0 -> #0:0 (copy)\n",
      "  Stream #1:1 -> #0:1 (copy)\n",
      "Press [q] to stop, [?] for help\n",
      "frame=    0 fps=0.0 q=-1.0 size=       0kB time=00:00:00.00 bitrate=N/A speed=   0x    \n",
      "frame=  142 fps=0.0 q=-1.0 Lsize=    1866kB time=00:00:04.90 bitrate=3114.9kbits/s speed= 834x    \n",
      "video:1785kB audio:74kB subtitle:0kB other streams:0kB global headers:0kB muxing overhead: 0.345821%\n",
      "\n",
      "ffmpeg -i F:\\Zdjęcia\\Wrak_Race\\20150913_134024.mp4 -i D:\\Windows\\Pulpit\\Zdjęcia\\heif\\Wrak_Race_heif\\20150913_134024.mp4 -map 1 -map_metadata 0 -c copy D:\\Windows\\Pulpit\\Zdjęcia\\heif\\Wrak_Race_heif\\20150913_134024_fixed.mp4\n",
      "\n",
      "ffmpeg version 6.0-full_build-www.gyan.dev Copyright (c) 2000-2023 the FFmpeg developers\n",
      "  built with gcc 12.2.0 (Rev10, Built by MSYS2 project)\n",
      "  configuration: --enable-gpl --enable-version3 --enable-static --disable-w32threads --disable-autodetect --enable-fontconfig --enable-iconv --enable-gnutls --enable-libxml2 --enable-gmp --enable-bzlib --enable-lzma --enable-libsnappy --enable-zlib --enable-librist --enable-libsrt --enable-libssh --enable-libzmq --enable-avisynth --enable-libbluray --enable-libcaca --enable-sdl2 --enable-libaribb24 --enable-libdav1d --enable-libdavs2 --enable-libuavs3d --enable-libzvbi --enable-librav1e --enable-libsvtav1 --enable-libwebp --enable-libx264 --enable-libx265 --enable-libxavs2 --enable-libxvid --enable-libaom --enable-libjxl --enable-libopenjpeg --enable-libvpx --enable-mediafoundation --enable-libass --enable-frei0r --enable-libfreetype --enable-libfribidi --enable-liblensfun --enable-libvidstab --enable-libvmaf --enable-libzimg --enable-amf --enable-cuda-llvm --enable-cuvid --enable-ffnvcodec --enable-nvdec --enable-nvenc --enable-d3d11va --enable-dxva2 --enable-libvpl --enable-libshaderc --enable-vulkan --enable-libplacebo --enable-opencl --enable-libcdio --enable-libgme --enable-libmodplug --enable-libopenmpt --enable-libopencore-amrwb --enable-libmp3lame --enable-libshine --enable-libtheora --enable-libtwolame --enable-libvo-amrwbenc --enable-libilbc --enable-libgsm --enable-libopencore-amrnb --enable-libopus --enable-libspeex --enable-libvorbis --enable-ladspa --enable-libbs2b --enable-libflite --enable-libmysofa --enable-librubberband --enable-libsoxr --enable-chromaprint\n",
      "  libavutil      58.  2.100 / 58.  2.100\n",
      "  libavcodec     60.  3.100 / 60.  3.100\n",
      "  libavformat    60.  3.100 / 60.  3.100\n",
      "  libavdevice    60.  1.100 / 60.  1.100\n",
      "  libavfilter     9.  3.100 /  9.  3.100\n",
      "  libswscale      7.  1.100 /  7.  1.100\n",
      "  libswresample   4. 10.100 /  4. 10.100\n",
      "  libpostproc    57.  1.100 / 57.  1.100\n",
      "Input #0, mov,mp4,m4a,3gp,3g2,mj2, from 'F:\\ZdjÄ™cia\\Wrak_Race\\20150913_134024.mp4':\n",
      "  Metadata:\n",
      "    major_brand     : isom\n",
      "    minor_version   : 0\n",
      "    compatible_brands: isom3gp4\n",
      "    creation_time   : 2015-09-13T11:40:30.000000Z\n",
      "  Duration: 00:00:05.08, start: 0.000000, bitrate: 3067 kb/s\n",
      "  Stream #0:0[0x1](eng): Video: h264 (Baseline) (avc1 / 0x31637661), yuv420p(progressive), 640x480, 3077 kb/s, 29.78 fps, 29.92 tbr, 90k tbn (default)\n",
      "    Metadata:\n",
      "      creation_time   : 2015-09-13T11:40:30.000000Z\n",
      "      handler_name    : VideoHandle\n",
      "      vendor_id       : [0][0][0][0]\n",
      "      encoder         :                                \n",
      "  Stream #0:1[0x2](eng): Audio: aac (LC) (mp4a / 0x6134706D), 48000 Hz, stereo, fltp, 124 kb/s (default)\n",
      "    Metadata:\n",
      "      creation_time   : 2015-09-13T11:40:30.000000Z\n",
      "      handler_name    : SoundHandle\n",
      "      vendor_id       : [0][0][0][0]\n",
      "Input #1, mov,mp4,m4a,3gp,3g2,mj2, from 'D:\\Windows\\Pulpit\\ZdjÄ™cia\\heif\\Wrak_Race_heif\\20150913_134024.mp4':\n",
      "  Metadata:\n",
      "    major_brand     : isom\n",
      "    minor_version   : 0\n",
      "    compatible_brands: isom3gp4\n",
      "    creation_time   : 2015-09-13T11:40:30.000000Z\n",
      "  Duration: 00:00:05.08, start: 0.000000, bitrate: 3067 kb/s\n",
      "  Stream #1:0[0x1](eng): Video: h264 (Baseline) (avc1 / 0x31637661), yuv420p(progressive), 640x480, 3077 kb/s, 29.78 fps, 29.92 tbr, 90k tbn (default)\n",
      "    Metadata:\n",
      "      creation_time   : 2015-09-13T11:40:30.000000Z\n",
      "      handler_name    : VideoHandle\n",
      "      vendor_id       : [0][0][0][0]\n",
      "      encoder         :                                \n",
      "  Stream #1:1[0x2](eng): Audio: aac (LC) (mp4a / 0x6134706D), 48000 Hz, stereo, fltp, 124 kb/s (default)\n",
      "    Metadata:\n",
      "      creation_time   : 2015-09-13T11:40:30.000000Z\n",
      "      handler_name    : SoundHandle\n",
      "      vendor_id       : [0][0][0][0]\n",
      "Output #0, mp4, to 'D:\\Windows\\Pulpit\\ZdjÄ™cia\\heif\\Wrak_Race_heif\\20150913_134024_fixed.mp4':\n",
      "  Metadata:\n",
      "    major_brand     : isom\n",
      "    minor_version   : 0\n",
      "    compatible_brands: isom3gp4\n",
      "    creation_time   : 2015-09-13T11:40:30.000000Z\n",
      "    encoder         : Lavf60.3.100\n",
      "  Stream #0:0(eng): Video: h264 (Baseline) (avc1 / 0x31637661), yuv420p(progressive), 640x480, q=2-31, 3077 kb/s, 29.78 fps, 29.92 tbr, 90k tbn (default)\n",
      "    Metadata:\n",
      "      creation_time   : 2015-09-13T11:40:30.000000Z\n",
      "      handler_name    : VideoHandle\n",
      "      vendor_id       : [0][0][0][0]\n",
      "      encoder         :                                \n",
      "  Stream #0:1(eng): Audio: aac (LC) (mp4a / 0x6134706D), 48000 Hz, stereo, fltp, 124 kb/s (default)\n",
      "    Metadata:\n",
      "      creation_time   : 2015-09-13T11:40:30.000000Z\n",
      "      handler_name    : SoundHandle\n",
      "      vendor_id       : [0][0][0][0]\n",
      "Stream mapping:\n",
      "  Stream #1:0 -> #0:0 (copy)\n",
      "  Stream #1:1 -> #0:1 (copy)\n",
      "Press [q] to stop, [?] for help\n",
      "frame=    0 fps=0.0 q=-1.0 size=       0kB time=00:00:00.00 bitrate=N/A speed=N/A    \n",
      "frame=  145 fps=0.0 q=-1.0 Lsize=    1904kB time=00:00:05.05 bitrate=3085.3kbits/s speed= 341x    \n",
      "video:1821kB audio:77kB subtitle:0kB other streams:0kB global headers:0kB muxing overhead: 0.343139%\n",
      "\n",
      "ffmpeg -i F:\\Zdjęcia\\Wrak_Race\\20150913_134035.mp4 -i D:\\Windows\\Pulpit\\Zdjęcia\\heif\\Wrak_Race_heif\\20150913_134035.mp4 -map 1 -map_metadata 0 -c copy D:\\Windows\\Pulpit\\Zdjęcia\\heif\\Wrak_Race_heif\\20150913_134035_fixed.mp4\n",
      "\n",
      "ffmpeg version 6.0-full_build-www.gyan.dev Copyright (c) 2000-2023 the FFmpeg developers\n",
      "  built with gcc 12.2.0 (Rev10, Built by MSYS2 project)\n",
      "  configuration: --enable-gpl --enable-version3 --enable-static --disable-w32threads --disable-autodetect --enable-fontconfig --enable-iconv --enable-gnutls --enable-libxml2 --enable-gmp --enable-bzlib --enable-lzma --enable-libsnappy --enable-zlib --enable-librist --enable-libsrt --enable-libssh --enable-libzmq --enable-avisynth --enable-libbluray --enable-libcaca --enable-sdl2 --enable-libaribb24 --enable-libdav1d --enable-libdavs2 --enable-libuavs3d --enable-libzvbi --enable-librav1e --enable-libsvtav1 --enable-libwebp --enable-libx264 --enable-libx265 --enable-libxavs2 --enable-libxvid --enable-libaom --enable-libjxl --enable-libopenjpeg --enable-libvpx --enable-mediafoundation --enable-libass --enable-frei0r --enable-libfreetype --enable-libfribidi --enable-liblensfun --enable-libvidstab --enable-libvmaf --enable-libzimg --enable-amf --enable-cuda-llvm --enable-cuvid --enable-ffnvcodec --enable-nvdec --enable-nvenc --enable-d3d11va --enable-dxva2 --enable-libvpl --enable-libshaderc --enable-vulkan --enable-libplacebo --enable-opencl --enable-libcdio --enable-libgme --enable-libmodplug --enable-libopenmpt --enable-libopencore-amrwb --enable-libmp3lame --enable-libshine --enable-libtheora --enable-libtwolame --enable-libvo-amrwbenc --enable-libilbc --enable-libgsm --enable-libopencore-amrnb --enable-libopus --enable-libspeex --enable-libvorbis --enable-ladspa --enable-libbs2b --enable-libflite --enable-libmysofa --enable-librubberband --enable-libsoxr --enable-chromaprint\n",
      "  libavutil      58.  2.100 / 58.  2.100\n",
      "  libavcodec     60.  3.100 / 60.  3.100\n",
      "  libavformat    60.  3.100 / 60.  3.100\n",
      "  libavdevice    60.  1.100 / 60.  1.100\n",
      "  libavfilter     9.  3.100 /  9.  3.100\n",
      "  libswscale      7.  1.100 /  7.  1.100\n",
      "  libswresample   4. 10.100 /  4. 10.100\n",
      "  libpostproc    57.  1.100 / 57.  1.100\n",
      "Input #0, mov,mp4,m4a,3gp,3g2,mj2, from 'F:\\ZdjÄ™cia\\Wrak_Race\\20150913_134035.mp4':\n",
      "  Metadata:\n",
      "    major_brand     : isom\n",
      "    minor_version   : 0\n",
      "    compatible_brands: isom3gp4\n",
      "    creation_time   : 2015-09-13T11:41:04.000000Z\n",
      "  Duration: 00:00:27.58, start: 0.000000, bitrate: 3183 kb/s\n",
      "  Stream #0:0[0x1](eng): Video: h264 (Baseline) (avc1 / 0x31637661), yuv420p(progressive), 640x480, 3074 kb/s, 29.91 fps, 29.92 tbr, 90k tbn (default)\n",
      "    Metadata:\n",
      "      creation_time   : 2015-09-13T11:41:04.000000Z\n",
      "      handler_name    : VideoHandle\n",
      "      vendor_id       : [0][0][0][0]\n",
      "      encoder         :                                \n",
      "  Stream #0:1[0x2](eng): Audio: aac (LC) (mp4a / 0x6134706D), 48000 Hz, stereo, fltp, 124 kb/s (default)\n",
      "    Metadata:\n",
      "      creation_time   : 2015-09-13T11:41:04.000000Z\n",
      "      handler_name    : SoundHandle\n",
      "      vendor_id       : [0][0][0][0]\n",
      "Input #1, mov,mp4,m4a,3gp,3g2,mj2, from 'D:\\Windows\\Pulpit\\ZdjÄ™cia\\heif\\Wrak_Race_heif\\20150913_134035.mp4':\n",
      "  Metadata:\n",
      "    major_brand     : isom\n",
      "    minor_version   : 0\n",
      "    compatible_brands: isom3gp4\n",
      "    creation_time   : 2015-09-13T11:41:04.000000Z\n",
      "  Duration: 00:00:27.58, start: 0.000000, bitrate: 3183 kb/s\n",
      "  Stream #1:0[0x1](eng): Video: h264 (Baseline) (avc1 / 0x31637661), yuv420p(progressive), 640x480, 3074 kb/s, 29.91 fps, 29.92 tbr, 90k tbn (default)\n",
      "    Metadata:\n",
      "      creation_time   : 2015-09-13T11:41:04.000000Z\n",
      "      handler_name    : VideoHandle\n",
      "      vendor_id       : [0][0][0][0]\n",
      "      encoder         :                                \n",
      "  Stream #1:1[0x2](eng): Audio: aac (LC) (mp4a / 0x6134706D), 48000 Hz, stereo, fltp, 124 kb/s (default)\n",
      "    Metadata:\n",
      "      creation_time   : 2015-09-13T11:41:04.000000Z\n",
      "      handler_name    : SoundHandle\n",
      "      vendor_id       : [0][0][0][0]\n",
      "Output #0, mp4, to 'D:\\Windows\\Pulpit\\ZdjÄ™cia\\heif\\Wrak_Race_heif\\20150913_134035_fixed.mp4':\n",
      "  Metadata:\n",
      "    major_brand     : isom\n",
      "    minor_version   : 0\n",
      "    compatible_brands: isom3gp4\n",
      "    creation_time   : 2015-09-13T11:41:04.000000Z\n",
      "    encoder         : Lavf60.3.100\n",
      "  Stream #0:0(eng): Video: h264 (Baseline) (avc1 / 0x31637661), yuv420p(progressive), 640x480, q=2-31, 3074 kb/s, 29.91 fps, 29.92 tbr, 90k tbn (default)\n",
      "    Metadata:\n",
      "      creation_time   : 2015-09-13T11:41:04.000000Z\n",
      "      handler_name    : VideoHandle\n",
      "      vendor_id       : [0][0][0][0]\n",
      "      encoder         :                                \n",
      "  Stream #0:1(eng): Audio: aac (LC) (mp4a / 0x6134706D), 48000 Hz, stereo, fltp, 124 kb/s (default)\n",
      "    Metadata:\n",
      "      creation_time   : 2015-09-13T11:41:04.000000Z\n",
      "      handler_name    : SoundHandle\n",
      "      vendor_id       : [0][0][0][0]\n",
      "Stream mapping:\n",
      "  Stream #1:0 -> #0:0 (copy)\n",
      "  Stream #1:1 -> #0:1 (copy)\n",
      "Press [q] to stop, [?] for help\n",
      "frame=    0 fps=0.0 q=-1.0 size=       0kB time=00:00:00.00 bitrate=N/A speed=N/A    \n",
      "frame=  820 fps=0.0 q=-1.0 Lsize=   10734kB time=00:00:27.56 bitrate=3190.2kbits/s speed= 204x    \n",
      "video:10283kB audio:420kB subtitle:0kB other streams:0kB global headers:0kB muxing overhead: 0.285805%\n",
      "\n",
      "ffmpeg -i F:\\Zdjęcia\\Wrak_Race\\20150913_134942.mp4 -i D:\\Windows\\Pulpit\\Zdjęcia\\heif\\Wrak_Race_heif\\20150913_134942.mp4 -map 1 -map_metadata 0 -c copy D:\\Windows\\Pulpit\\Zdjęcia\\heif\\Wrak_Race_heif\\20150913_134942_fixed.mp4\n",
      "\n",
      "ffmpeg version 6.0-full_build-www.gyan.dev Copyright (c) 2000-2023 the FFmpeg developers\n",
      "  built with gcc 12.2.0 (Rev10, Built by MSYS2 project)\n",
      "  configuration: --enable-gpl --enable-version3 --enable-static --disable-w32threads --disable-autodetect --enable-fontconfig --enable-iconv --enable-gnutls --enable-libxml2 --enable-gmp --enable-bzlib --enable-lzma --enable-libsnappy --enable-zlib --enable-librist --enable-libsrt --enable-libssh --enable-libzmq --enable-avisynth --enable-libbluray --enable-libcaca --enable-sdl2 --enable-libaribb24 --enable-libdav1d --enable-libdavs2 --enable-libuavs3d --enable-libzvbi --enable-librav1e --enable-libsvtav1 --enable-libwebp --enable-libx264 --enable-libx265 --enable-libxavs2 --enable-libxvid --enable-libaom --enable-libjxl --enable-libopenjpeg --enable-libvpx --enable-mediafoundation --enable-libass --enable-frei0r --enable-libfreetype --enable-libfribidi --enable-liblensfun --enable-libvidstab --enable-libvmaf --enable-libzimg --enable-amf --enable-cuda-llvm --enable-cuvid --enable-ffnvcodec --enable-nvdec --enable-nvenc --enable-d3d11va --enable-dxva2 --enable-libvpl --enable-libshaderc --enable-vulkan --enable-libplacebo --enable-opencl --enable-libcdio --enable-libgme --enable-libmodplug --enable-libopenmpt --enable-libopencore-amrwb --enable-libmp3lame --enable-libshine --enable-libtheora --enable-libtwolame --enable-libvo-amrwbenc --enable-libilbc --enable-libgsm --enable-libopencore-amrnb --enable-libopus --enable-libspeex --enable-libvorbis --enable-ladspa --enable-libbs2b --enable-libflite --enable-libmysofa --enable-librubberband --enable-libsoxr --enable-chromaprint\n",
      "  libavutil      58.  2.100 / 58.  2.100\n",
      "  libavcodec     60.  3.100 / 60.  3.100\n",
      "  libavformat    60.  3.100 / 60.  3.100\n",
      "  libavdevice    60.  1.100 / 60.  1.100\n",
      "  libavfilter     9.  3.100 /  9.  3.100\n",
      "  libswscale      7.  1.100 /  7.  1.100\n",
      "  libswresample   4. 10.100 /  4. 10.100\n",
      "  libpostproc    57.  1.100 / 57.  1.100\n",
      "Input #0, mov,mp4,m4a,3gp,3g2,mj2, from 'F:\\ZdjÄ™cia\\Wrak_Race\\20150913_134942.mp4':\n",
      "  Metadata:\n",
      "    major_brand     : isom\n",
      "    minor_version   : 0\n",
      "    compatible_brands: isom3gp4\n",
      "    creation_time   : 2015-09-13T11:50:45.000000Z\n",
      "  Duration: 00:01:01.16, start: 0.000000, bitrate: 3196 kb/s\n",
      "  Stream #0:0[0x1](eng): Video: h264 (Baseline) (avc1 / 0x31637661), yuv420p(progressive), 640x480, 3070 kb/s, 29.93 fps, 29.92 tbr, 90k tbn (default)\n",
      "    Metadata:\n",
      "      creation_time   : 2015-09-13T11:50:45.000000Z\n",
      "      handler_name    : VideoHandle\n",
      "      vendor_id       : [0][0][0][0]\n",
      "      encoder         :                                \n",
      "  Stream #0:1[0x2](eng): Audio: aac (LC) (mp4a / 0x6134706D), 48000 Hz, stereo, fltp, 128 kb/s (default)\n",
      "    Metadata:\n",
      "      creation_time   : 2015-09-13T11:50:45.000000Z\n",
      "      handler_name    : SoundHandle\n",
      "      vendor_id       : [0][0][0][0]\n",
      "Input #1, mov,mp4,m4a,3gp,3g2,mj2, from 'D:\\Windows\\Pulpit\\ZdjÄ™cia\\heif\\Wrak_Race_heif\\20150913_134942.mp4':\n",
      "  Metadata:\n",
      "    major_brand     : isom\n",
      "    minor_version   : 0\n",
      "    compatible_brands: isom3gp4\n",
      "    creation_time   : 2015-09-13T11:50:45.000000Z\n",
      "  Duration: 00:01:01.16, start: 0.000000, bitrate: 3196 kb/s\n",
      "  Stream #1:0[0x1](eng): Video: h264 (Baseline) (avc1 / 0x31637661), yuv420p(progressive), 640x480, 3070 kb/s, 29.93 fps, 29.92 tbr, 90k tbn (default)\n",
      "    Metadata:\n",
      "      creation_time   : 2015-09-13T11:50:45.000000Z\n",
      "      handler_name    : VideoHandle\n",
      "      vendor_id       : [0][0][0][0]\n",
      "      encoder         :                                \n",
      "  Stream #1:1[0x2](eng): Audio: aac (LC) (mp4a / 0x6134706D), 48000 Hz, stereo, fltp, 128 kb/s (default)\n",
      "    Metadata:\n",
      "      creation_time   : 2015-09-13T11:50:45.000000Z\n",
      "      handler_name    : SoundHandle\n",
      "      vendor_id       : [0][0][0][0]\n",
      "Output #0, mp4, to 'D:\\Windows\\Pulpit\\ZdjÄ™cia\\heif\\Wrak_Race_heif\\20150913_134942_fixed.mp4':\n",
      "  Metadata:\n",
      "    major_brand     : isom\n",
      "    minor_version   : 0\n",
      "    compatible_brands: isom3gp4\n",
      "    creation_time   : 2015-09-13T11:50:45.000000Z\n",
      "    encoder         : Lavf60.3.100\n",
      "  Stream #0:0(eng): Video: h264 (Baseline) (avc1 / 0x31637661), yuv420p(progressive), 640x480, q=2-31, 3070 kb/s, 29.93 fps, 29.92 tbr, 90k tbn (default)\n",
      "    Metadata:\n",
      "      creation_time   : 2015-09-13T11:50:45.000000Z\n",
      "      handler_name    : VideoHandle\n",
      "      vendor_id       : [0][0][0][0]\n",
      "      encoder         :                                \n",
      "  Stream #0:1(eng): Audio: aac (LC) (mp4a / 0x6134706D), 48000 Hz, stereo, fltp, 128 kb/s (default)\n",
      "    Metadata:\n",
      "      creation_time   : 2015-09-13T11:50:45.000000Z\n",
      "      handler_name    : SoundHandle\n",
      "      vendor_id       : [0][0][0][0]\n",
      "Stream mapping:\n",
      "  Stream #1:0 -> #0:0 (copy)\n",
      "  Stream #1:1 -> #0:1 (copy)\n",
      "Press [q] to stop, [?] for help\n",
      "frame=    0 fps=0.0 q=-1.0 size=       0kB time=00:00:00.00 bitrate=N/A speed=N/A    \n",
      "frame= 1826 fps=0.0 q=-1.0 Lsize=   23895kB time=00:01:01.14 bitrate=3201.4kbits/s speed= 225x    \n",
      "video:22870kB audio:958kB subtitle:0kB other streams:0kB global headers:0kB muxing overhead: 0.278817%\n",
      "\n",
      "ffmpeg -i F:\\Zdjęcia\\Wrak_Race\\20150913_141625.mp4 -i D:\\Windows\\Pulpit\\Zdjęcia\\heif\\Wrak_Race_heif\\20150913_141625.mp4 -map 1 -map_metadata 0 -c copy D:\\Windows\\Pulpit\\Zdjęcia\\heif\\Wrak_Race_heif\\20150913_141625_fixed.mp4\n",
      "\n",
      "ffmpeg version 6.0-full_build-www.gyan.dev Copyright (c) 2000-2023 the FFmpeg developers\n",
      "  built with gcc 12.2.0 (Rev10, Built by MSYS2 project)\n",
      "  configuration: --enable-gpl --enable-version3 --enable-static --disable-w32threads --disable-autodetect --enable-fontconfig --enable-iconv --enable-gnutls --enable-libxml2 --enable-gmp --enable-bzlib --enable-lzma --enable-libsnappy --enable-zlib --enable-librist --enable-libsrt --enable-libssh --enable-libzmq --enable-avisynth --enable-libbluray --enable-libcaca --enable-sdl2 --enable-libaribb24 --enable-libdav1d --enable-libdavs2 --enable-libuavs3d --enable-libzvbi --enable-librav1e --enable-libsvtav1 --enable-libwebp --enable-libx264 --enable-libx265 --enable-libxavs2 --enable-libxvid --enable-libaom --enable-libjxl --enable-libopenjpeg --enable-libvpx --enable-mediafoundation --enable-libass --enable-frei0r --enable-libfreetype --enable-libfribidi --enable-liblensfun --enable-libvidstab --enable-libvmaf --enable-libzimg --enable-amf --enable-cuda-llvm --enable-cuvid --enable-ffnvcodec --enable-nvdec --enable-nvenc --enable-d3d11va --enable-dxva2 --enable-libvpl --enable-libshaderc --enable-vulkan --enable-libplacebo --enable-opencl --enable-libcdio --enable-libgme --enable-libmodplug --enable-libopenmpt --enable-libopencore-amrwb --enable-libmp3lame --enable-libshine --enable-libtheora --enable-libtwolame --enable-libvo-amrwbenc --enable-libilbc --enable-libgsm --enable-libopencore-amrnb --enable-libopus --enable-libspeex --enable-libvorbis --enable-ladspa --enable-libbs2b --enable-libflite --enable-libmysofa --enable-librubberband --enable-libsoxr --enable-chromaprint\n",
      "  libavutil      58.  2.100 / 58.  2.100\n",
      "  libavcodec     60.  3.100 / 60.  3.100\n",
      "  libavformat    60.  3.100 / 60.  3.100\n",
      "  libavdevice    60.  1.100 / 60.  1.100\n",
      "  libavfilter     9.  3.100 /  9.  3.100\n",
      "  libswscale      7.  1.100 /  7.  1.100\n",
      "  libswresample   4. 10.100 /  4. 10.100\n",
      "  libpostproc    57.  1.100 / 57.  1.100\n",
      "Input #0, mov,mp4,m4a,3gp,3g2,mj2, from 'F:\\ZdjÄ™cia\\Wrak_Race\\20150913_141625.mp4':\n",
      "  Metadata:\n",
      "    major_brand     : isom\n",
      "    minor_version   : 0\n",
      "    compatible_brands: isom3gp4\n",
      "    creation_time   : 2015-09-13T12:16:40.000000Z\n",
      "  Duration: 00:00:14.36, start: 0.000000, bitrate: 3155 kb/s\n",
      "  Stream #0:0[0x1](eng): Video: h264 (Baseline) (avc1 / 0x31637661), yuv420p(progressive), 640x480, 3081 kb/s, 29.91 fps, 29.92 tbr, 90k tbn (default)\n",
      "    Metadata:\n",
      "      creation_time   : 2015-09-13T12:16:40.000000Z\n",
      "      handler_name    : VideoHandle\n",
      "      vendor_id       : [0][0][0][0]\n",
      "      encoder         :                                \n",
      "  Stream #0:1[0x2](eng): Audio: aac (LC) (mp4a / 0x6134706D), 48000 Hz, stereo, fltp, 123 kb/s (default)\n",
      "    Metadata:\n",
      "      creation_time   : 2015-09-13T12:16:40.000000Z\n",
      "      handler_name    : SoundHandle\n",
      "      vendor_id       : [0][0][0][0]\n",
      "Input #1, mov,mp4,m4a,3gp,3g2,mj2, from 'D:\\Windows\\Pulpit\\ZdjÄ™cia\\heif\\Wrak_Race_heif\\20150913_141625.mp4':\n",
      "  Metadata:\n",
      "    major_brand     : isom\n",
      "    minor_version   : 0\n",
      "    compatible_brands: isom3gp4\n",
      "    creation_time   : 2015-09-13T12:16:40.000000Z\n",
      "  Duration: 00:00:14.36, start: 0.000000, bitrate: 3155 kb/s\n",
      "  Stream #1:0[0x1](eng): Video: h264 (Baseline) (avc1 / 0x31637661), yuv420p(progressive), 640x480, 3081 kb/s, 29.91 fps, 29.92 tbr, 90k tbn (default)\n",
      "    Metadata:\n",
      "      creation_time   : 2015-09-13T12:16:40.000000Z\n",
      "      handler_name    : VideoHandle\n",
      "      vendor_id       : [0][0][0][0]\n",
      "      encoder         :                                \n",
      "  Stream #1:1[0x2](eng): Audio: aac (LC) (mp4a / 0x6134706D), 48000 Hz, stereo, fltp, 123 kb/s (default)\n",
      "    Metadata:\n",
      "      creation_time   : 2015-09-13T12:16:40.000000Z\n",
      "      handler_name    : SoundHandle\n",
      "      vendor_id       : [0][0][0][0]\n",
      "Output #0, mp4, to 'D:\\Windows\\Pulpit\\ZdjÄ™cia\\heif\\Wrak_Race_heif\\20150913_141625_fixed.mp4':\n",
      "  Metadata:\n",
      "    major_brand     : isom\n",
      "    minor_version   : 0\n",
      "    compatible_brands: isom3gp4\n",
      "    creation_time   : 2015-09-13T12:16:40.000000Z\n",
      "    encoder         : Lavf60.3.100\n",
      "  Stream #0:0(eng): Video: h264 (Baseline) (avc1 / 0x31637661), yuv420p(progressive), 640x480, q=2-31, 3081 kb/s, 29.91 fps, 29.92 tbr, 90k tbn (default)\n",
      "    Metadata:\n",
      "      creation_time   : 2015-09-13T12:16:40.000000Z\n",
      "      handler_name    : VideoHandle\n",
      "      vendor_id       : [0][0][0][0]\n",
      "      encoder         :                                \n",
      "  Stream #0:1(eng): Audio: aac (LC) (mp4a / 0x6134706D), 48000 Hz, stereo, fltp, 123 kb/s (default)\n",
      "    Metadata:\n",
      "      creation_time   : 2015-09-13T12:16:40.000000Z\n",
      "      handler_name    : SoundHandle\n",
      "      vendor_id       : [0][0][0][0]\n",
      "Stream mapping:\n",
      "  Stream #1:0 -> #0:0 (copy)\n",
      "  Stream #1:1 -> #0:1 (copy)\n",
      "Press [q] to stop, [?] for help\n",
      "frame=    0 fps=0.0 q=-1.0 size=       0kB time=00:00:00.00 bitrate=N/A speed=N/A    \n",
      "frame=  422 fps=0.0 q=-1.0 Lsize=    5537kB time=00:00:14.33 bitrate=3164.2kbits/s speed= 267x    \n",
      "video:5304kB audio:217kB subtitle:0kB other streams:0kB global headers:0kB muxing overhead: 0.296672%\n",
      "\n",
      "ffmpeg -i F:\\Zdjęcia\\Wrak_Race\\20150913_152724.mp4 -i D:\\Windows\\Pulpit\\Zdjęcia\\heif\\Wrak_Race_heif\\20150913_152724.mp4 -map 1 -map_metadata 0 -c copy D:\\Windows\\Pulpit\\Zdjęcia\\heif\\Wrak_Race_heif\\20150913_152724_fixed.mp4\n",
      "\n",
      "ffmpeg version 6.0-full_build-www.gyan.dev Copyright (c) 2000-2023 the FFmpeg developers\n",
      "  built with gcc 12.2.0 (Rev10, Built by MSYS2 project)\n",
      "  configuration: --enable-gpl --enable-version3 --enable-static --disable-w32threads --disable-autodetect --enable-fontconfig --enable-iconv --enable-gnutls --enable-libxml2 --enable-gmp --enable-bzlib --enable-lzma --enable-libsnappy --enable-zlib --enable-librist --enable-libsrt --enable-libssh --enable-libzmq --enable-avisynth --enable-libbluray --enable-libcaca --enable-sdl2 --enable-libaribb24 --enable-libdav1d --enable-libdavs2 --enable-libuavs3d --enable-libzvbi --enable-librav1e --enable-libsvtav1 --enable-libwebp --enable-libx264 --enable-libx265 --enable-libxavs2 --enable-libxvid --enable-libaom --enable-libjxl --enable-libopenjpeg --enable-libvpx --enable-mediafoundation --enable-libass --enable-frei0r --enable-libfreetype --enable-libfribidi --enable-liblensfun --enable-libvidstab --enable-libvmaf --enable-libzimg --enable-amf --enable-cuda-llvm --enable-cuvid --enable-ffnvcodec --enable-nvdec --enable-nvenc --enable-d3d11va --enable-dxva2 --enable-libvpl --enable-libshaderc --enable-vulkan --enable-libplacebo --enable-opencl --enable-libcdio --enable-libgme --enable-libmodplug --enable-libopenmpt --enable-libopencore-amrwb --enable-libmp3lame --enable-libshine --enable-libtheora --enable-libtwolame --enable-libvo-amrwbenc --enable-libilbc --enable-libgsm --enable-libopencore-amrnb --enable-libopus --enable-libspeex --enable-libvorbis --enable-ladspa --enable-libbs2b --enable-libflite --enable-libmysofa --enable-librubberband --enable-libsoxr --enable-chromaprint\n",
      "  libavutil      58.  2.100 / 58.  2.100\n",
      "  libavcodec     60.  3.100 / 60.  3.100\n",
      "  libavformat    60.  3.100 / 60.  3.100\n",
      "  libavdevice    60.  1.100 / 60.  1.100\n",
      "  libavfilter     9.  3.100 /  9.  3.100\n",
      "  libswscale      7.  1.100 /  7.  1.100\n",
      "  libswresample   4. 10.100 /  4. 10.100\n",
      "  libpostproc    57.  1.100 / 57.  1.100\n",
      "Input #0, mov,mp4,m4a,3gp,3g2,mj2, from 'F:\\ZdjÄ™cia\\Wrak_Race\\20150913_152724.mp4':\n",
      "  Metadata:\n",
      "    major_brand     : isom\n",
      "    minor_version   : 0\n",
      "    compatible_brands: isom3gp4\n",
      "    creation_time   : 2015-09-13T13:27:40.000000Z\n",
      "  Duration: 00:00:15.34, start: 0.000000, bitrate: 3162 kb/s\n",
      "  Stream #0:0[0x1](eng): Video: h264 (Baseline) (avc1 / 0x31637661), yuv420p(progressive), 640x480, 3076 kb/s, 29.80 fps, 29.92 tbr, 90k tbn (default)\n",
      "    Metadata:\n",
      "      creation_time   : 2015-09-13T13:27:40.000000Z\n",
      "      handler_name    : VideoHandle\n",
      "      vendor_id       : [0][0][0][0]\n",
      "      encoder         :                                \n",
      "  Stream #0:1[0x2](eng): Audio: aac (LC) (mp4a / 0x6134706D), 48000 Hz, stereo, fltp, 128 kb/s (default)\n",
      "    Metadata:\n",
      "      creation_time   : 2015-09-13T13:27:40.000000Z\n",
      "      handler_name    : SoundHandle\n",
      "      vendor_id       : [0][0][0][0]\n",
      "Input #1, mov,mp4,m4a,3gp,3g2,mj2, from 'D:\\Windows\\Pulpit\\ZdjÄ™cia\\heif\\Wrak_Race_heif\\20150913_152724.mp4':\n",
      "  Metadata:\n",
      "    major_brand     : isom\n",
      "    minor_version   : 0\n",
      "    compatible_brands: isom3gp4\n",
      "    creation_time   : 2015-09-13T13:27:40.000000Z\n",
      "  Duration: 00:00:15.34, start: 0.000000, bitrate: 3162 kb/s\n",
      "  Stream #1:0[0x1](eng): Video: h264 (Baseline) (avc1 / 0x31637661), yuv420p(progressive), 640x480, 3076 kb/s, 29.80 fps, 29.92 tbr, 90k tbn (default)\n",
      "    Metadata:\n",
      "      creation_time   : 2015-09-13T13:27:40.000000Z\n",
      "      handler_name    : VideoHandle\n",
      "      vendor_id       : [0][0][0][0]\n",
      "      encoder         :                                \n",
      "  Stream #1:1[0x2](eng): Audio: aac (LC) (mp4a / 0x6134706D), 48000 Hz, stereo, fltp, 128 kb/s (default)\n",
      "    Metadata:\n",
      "      creation_time   : 2015-09-13T13:27:40.000000Z\n",
      "      handler_name    : SoundHandle\n",
      "      vendor_id       : [0][0][0][0]\n",
      "Output #0, mp4, to 'D:\\Windows\\Pulpit\\ZdjÄ™cia\\heif\\Wrak_Race_heif\\20150913_152724_fixed.mp4':\n",
      "  Metadata:\n",
      "    major_brand     : isom\n",
      "    minor_version   : 0\n",
      "    compatible_brands: isom3gp4\n",
      "    creation_time   : 2015-09-13T13:27:40.000000Z\n",
      "    encoder         : Lavf60.3.100\n",
      "  Stream #0:0(eng): Video: h264 (Baseline) (avc1 / 0x31637661), yuv420p(progressive), 640x480, q=2-31, 3076 kb/s, 29.80 fps, 29.92 tbr, 90k tbn (default)\n",
      "    Metadata:\n",
      "      creation_time   : 2015-09-13T13:27:40.000000Z\n",
      "      handler_name    : VideoHandle\n",
      "      vendor_id       : [0][0][0][0]\n",
      "      encoder         :                                \n",
      "  Stream #0:1(eng): Audio: aac (LC) (mp4a / 0x6134706D), 48000 Hz, stereo, fltp, 128 kb/s (default)\n",
      "    Metadata:\n",
      "      creation_time   : 2015-09-13T13:27:40.000000Z\n",
      "      handler_name    : SoundHandle\n",
      "      vendor_id       : [0][0][0][0]\n",
      "Stream mapping:\n",
      "  Stream #1:0 -> #0:0 (copy)\n",
      "  Stream #1:1 -> #0:1 (copy)\n",
      "Press [q] to stop, [?] for help\n",
      "frame=    0 fps=0.0 q=-1.0 size=       0kB time=00:00:00.00 bitrate=N/A speed=N/A    \n",
      "frame=  451 fps=0.0 q=-1.0 Lsize=    5929kB time=00:00:15.31 bitrate=3171.0kbits/s speed= 265x    \n",
      "video:5672kB audio:240kB subtitle:0kB other streams:0kB global headers:0kB muxing overhead: 0.294834%\n",
      "\n",
      "ffmpeg -i F:\\Zdjęcia\\Wrak_Race\\20150913_152818.mp4 -i D:\\Windows\\Pulpit\\Zdjęcia\\heif\\Wrak_Race_heif\\20150913_152818.mp4 -map 1 -map_metadata 0 -c copy D:\\Windows\\Pulpit\\Zdjęcia\\heif\\Wrak_Race_heif\\20150913_152818_fixed.mp4\n",
      "\n",
      "ffmpeg version 6.0-full_build-www.gyan.dev Copyright (c) 2000-2023 the FFmpeg developers\n",
      "  built with gcc 12.2.0 (Rev10, Built by MSYS2 project)\n",
      "  configuration: --enable-gpl --enable-version3 --enable-static --disable-w32threads --disable-autodetect --enable-fontconfig --enable-iconv --enable-gnutls --enable-libxml2 --enable-gmp --enable-bzlib --enable-lzma --enable-libsnappy --enable-zlib --enable-librist --enable-libsrt --enable-libssh --enable-libzmq --enable-avisynth --enable-libbluray --enable-libcaca --enable-sdl2 --enable-libaribb24 --enable-libdav1d --enable-libdavs2 --enable-libuavs3d --enable-libzvbi --enable-librav1e --enable-libsvtav1 --enable-libwebp --enable-libx264 --enable-libx265 --enable-libxavs2 --enable-libxvid --enable-libaom --enable-libjxl --enable-libopenjpeg --enable-libvpx --enable-mediafoundation --enable-libass --enable-frei0r --enable-libfreetype --enable-libfribidi --enable-liblensfun --enable-libvidstab --enable-libvmaf --enable-libzimg --enable-amf --enable-cuda-llvm --enable-cuvid --enable-ffnvcodec --enable-nvdec --enable-nvenc --enable-d3d11va --enable-dxva2 --enable-libvpl --enable-libshaderc --enable-vulkan --enable-libplacebo --enable-opencl --enable-libcdio --enable-libgme --enable-libmodplug --enable-libopenmpt --enable-libopencore-amrwb --enable-libmp3lame --enable-libshine --enable-libtheora --enable-libtwolame --enable-libvo-amrwbenc --enable-libilbc --enable-libgsm --enable-libopencore-amrnb --enable-libopus --enable-libspeex --enable-libvorbis --enable-ladspa --enable-libbs2b --enable-libflite --enable-libmysofa --enable-librubberband --enable-libsoxr --enable-chromaprint\n",
      "  libavutil      58.  2.100 / 58.  2.100\n",
      "  libavcodec     60.  3.100 / 60.  3.100\n",
      "  libavformat    60.  3.100 / 60.  3.100\n",
      "  libavdevice    60.  1.100 / 60.  1.100\n",
      "  libavfilter     9.  3.100 /  9.  3.100\n",
      "  libswscale      7.  1.100 /  7.  1.100\n",
      "  libswresample   4. 10.100 /  4. 10.100\n",
      "  libpostproc    57.  1.100 / 57.  1.100\n",
      "Input #0, mov,mp4,m4a,3gp,3g2,mj2, from 'F:\\ZdjÄ™cia\\Wrak_Race\\20150913_152818.mp4':\n",
      "  Metadata:\n",
      "    major_brand     : isom\n",
      "    minor_version   : 0\n",
      "    compatible_brands: isom3gp4\n",
      "    creation_time   : 2015-09-13T13:29:11.000000Z\n",
      "  Duration: 00:00:52.35, start: 0.000000, bitrate: 3177 kb/s\n",
      "  Stream #0:0[0x1](eng): Video: h264 (Baseline) (avc1 / 0x31637661), yuv420p(progressive), 640x480, 3057 kb/s, 29.78 fps, 29.92 tbr, 90k tbn (default)\n",
      "    Metadata:\n",
      "      creation_time   : 2015-09-13T13:29:11.000000Z\n",
      "      handler_name    : VideoHandle\n",
      "      vendor_id       : [0][0][0][0]\n",
      "      encoder         :                                \n",
      "  Stream #0:1[0x2](eng): Audio: aac (LC) (mp4a / 0x6134706D), 48000 Hz, stereo, fltp, 128 kb/s (default)\n",
      "    Metadata:\n",
      "      creation_time   : 2015-09-13T13:29:11.000000Z\n",
      "      handler_name    : SoundHandle\n",
      "      vendor_id       : [0][0][0][0]\n",
      "Input #1, mov,mp4,m4a,3gp,3g2,mj2, from 'D:\\Windows\\Pulpit\\ZdjÄ™cia\\heif\\Wrak_Race_heif\\20150913_152818.mp4':\n",
      "  Metadata:\n",
      "    major_brand     : isom\n",
      "    minor_version   : 0\n",
      "    compatible_brands: isom3gp4\n",
      "    creation_time   : 2015-09-13T13:29:11.000000Z\n",
      "  Duration: 00:00:52.35, start: 0.000000, bitrate: 3177 kb/s\n",
      "  Stream #1:0[0x1](eng): Video: h264 (Baseline) (avc1 / 0x31637661), yuv420p(progressive), 640x480, 3057 kb/s, 29.78 fps, 29.92 tbr, 90k tbn (default)\n",
      "    Metadata:\n",
      "      creation_time   : 2015-09-13T13:29:11.000000Z\n",
      "      handler_name    : VideoHandle\n",
      "      vendor_id       : [0][0][0][0]\n",
      "      encoder         :                                \n",
      "  Stream #1:1[0x2](eng): Audio: aac (LC) (mp4a / 0x6134706D), 48000 Hz, stereo, fltp, 128 kb/s (default)\n",
      "    Metadata:\n",
      "      creation_time   : 2015-09-13T13:29:11.000000Z\n",
      "      handler_name    : SoundHandle\n",
      "      vendor_id       : [0][0][0][0]\n",
      "Output #0, mp4, to 'D:\\Windows\\Pulpit\\ZdjÄ™cia\\heif\\Wrak_Race_heif\\20150913_152818_fixed.mp4':\n",
      "  Metadata:\n",
      "    major_brand     : isom\n",
      "    minor_version   : 0\n",
      "    compatible_brands: isom3gp4\n",
      "    creation_time   : 2015-09-13T13:29:11.000000Z\n",
      "    encoder         : Lavf60.3.100\n",
      "  Stream #0:0(eng): Video: h264 (Baseline) (avc1 / 0x31637661), yuv420p(progressive), 640x480, q=2-31, 3057 kb/s, 29.78 fps, 29.92 tbr, 90k tbn (default)\n",
      "    Metadata:\n",
      "      creation_time   : 2015-09-13T13:29:11.000000Z\n",
      "      handler_name    : VideoHandle\n",
      "      vendor_id       : [0][0][0][0]\n",
      "      encoder         :                                \n",
      "  Stream #0:1(eng): Audio: aac (LC) (mp4a / 0x6134706D), 48000 Hz, stereo, fltp, 128 kb/s (default)\n",
      "    Metadata:\n",
      "      creation_time   : 2015-09-13T13:29:11.000000Z\n",
      "      handler_name    : SoundHandle\n",
      "      vendor_id       : [0][0][0][0]\n",
      "Stream mapping:\n",
      "  Stream #1:0 -> #0:0 (copy)\n",
      "  Stream #1:1 -> #0:1 (copy)\n",
      "Press [q] to stop, [?] for help\n",
      "frame=    0 fps=0.0 q=-1.0 size=       0kB time=00:00:00.00 bitrate=N/A speed=N/A    \n",
      "frame= 1553 fps=0.0 q=-1.0 Lsize=   20332kB time=00:00:52.33 bitrate=3182.8kbits/s speed= 211x    \n",
      "video:19454kB audio:821kB subtitle:0kB other streams:0kB global headers:0kB muxing overhead: 0.279843%\n",
      "\n",
      "ffmpeg -i F:\\Zdjęcia\\Wrak_Race\\20150913_153214.mp4 -i D:\\Windows\\Pulpit\\Zdjęcia\\heif\\Wrak_Race_heif\\20150913_153214.mp4 -map 1 -map_metadata 0 -c copy D:\\Windows\\Pulpit\\Zdjęcia\\heif\\Wrak_Race_heif\\20150913_153214_fixed.mp4\n",
      "\n",
      "ffmpeg version 6.0-full_build-www.gyan.dev Copyright (c) 2000-2023 the FFmpeg developers\n",
      "  built with gcc 12.2.0 (Rev10, Built by MSYS2 project)\n",
      "  configuration: --enable-gpl --enable-version3 --enable-static --disable-w32threads --disable-autodetect --enable-fontconfig --enable-iconv --enable-gnutls --enable-libxml2 --enable-gmp --enable-bzlib --enable-lzma --enable-libsnappy --enable-zlib --enable-librist --enable-libsrt --enable-libssh --enable-libzmq --enable-avisynth --enable-libbluray --enable-libcaca --enable-sdl2 --enable-libaribb24 --enable-libdav1d --enable-libdavs2 --enable-libuavs3d --enable-libzvbi --enable-librav1e --enable-libsvtav1 --enable-libwebp --enable-libx264 --enable-libx265 --enable-libxavs2 --enable-libxvid --enable-libaom --enable-libjxl --enable-libopenjpeg --enable-libvpx --enable-mediafoundation --enable-libass --enable-frei0r --enable-libfreetype --enable-libfribidi --enable-liblensfun --enable-libvidstab --enable-libvmaf --enable-libzimg --enable-amf --enable-cuda-llvm --enable-cuvid --enable-ffnvcodec --enable-nvdec --enable-nvenc --enable-d3d11va --enable-dxva2 --enable-libvpl --enable-libshaderc --enable-vulkan --enable-libplacebo --enable-opencl --enable-libcdio --enable-libgme --enable-libmodplug --enable-libopenmpt --enable-libopencore-amrwb --enable-libmp3lame --enable-libshine --enable-libtheora --enable-libtwolame --enable-libvo-amrwbenc --enable-libilbc --enable-libgsm --enable-libopencore-amrnb --enable-libopus --enable-libspeex --enable-libvorbis --enable-ladspa --enable-libbs2b --enable-libflite --enable-libmysofa --enable-librubberband --enable-libsoxr --enable-chromaprint\n",
      "  libavutil      58.  2.100 / 58.  2.100\n",
      "  libavcodec     60.  3.100 / 60.  3.100\n",
      "  libavformat    60.  3.100 / 60.  3.100\n",
      "  libavdevice    60.  1.100 / 60.  1.100\n",
      "  libavfilter     9.  3.100 /  9.  3.100\n",
      "  libswscale      7.  1.100 /  7.  1.100\n",
      "  libswresample   4. 10.100 /  4. 10.100\n",
      "  libpostproc    57.  1.100 / 57.  1.100\n",
      "Input #0, mov,mp4,m4a,3gp,3g2,mj2, from 'F:\\ZdjÄ™cia\\Wrak_Race\\20150913_153214.mp4':\n",
      "  Metadata:\n",
      "    major_brand     : isom\n",
      "    minor_version   : 0\n",
      "    compatible_brands: isom3gp4\n",
      "    creation_time   : 2015-09-13T13:33:16.000000Z\n",
      "  Duration: 00:01:00.82, start: 0.000000, bitrate: 3183 kb/s\n",
      "  Stream #0:0[0x1](eng): Video: h264 (Baseline) (avc1 / 0x31637661), yuv420p(progressive), 640x480, 3071 kb/s, 29.91 fps, 29.92 tbr, 90k tbn (default)\n",
      "    Metadata:\n",
      "      creation_time   : 2015-09-13T13:33:16.000000Z\n",
      "      handler_name    : VideoHandle\n",
      "      vendor_id       : [0][0][0][0]\n",
      "      encoder         :                                \n",
      "  Stream #0:1[0x2](eng): Audio: aac (LC) (mp4a / 0x6134706D), 48000 Hz, stereo, fltp, 124 kb/s (default)\n",
      "    Metadata:\n",
      "      creation_time   : 2015-09-13T13:33:16.000000Z\n",
      "      handler_name    : SoundHandle\n",
      "      vendor_id       : [0][0][0][0]\n",
      "Input #1, mov,mp4,m4a,3gp,3g2,mj2, from 'D:\\Windows\\Pulpit\\ZdjÄ™cia\\heif\\Wrak_Race_heif\\20150913_153214.mp4':\n",
      "  Metadata:\n",
      "    major_brand     : isom\n",
      "    minor_version   : 0\n",
      "    compatible_brands: isom3gp4\n",
      "    creation_time   : 2015-09-13T13:33:16.000000Z\n",
      "  Duration: 00:01:00.82, start: 0.000000, bitrate: 3183 kb/s\n",
      "  Stream #1:0[0x1](eng): Video: h264 (Baseline) (avc1 / 0x31637661), yuv420p(progressive), 640x480, 3071 kb/s, 29.91 fps, 29.92 tbr, 90k tbn (default)\n",
      "    Metadata:\n",
      "      creation_time   : 2015-09-13T13:33:16.000000Z\n",
      "      handler_name    : VideoHandle\n",
      "      vendor_id       : [0][0][0][0]\n",
      "      encoder         :                                \n",
      "  Stream #1:1[0x2](eng): Audio: aac (LC) (mp4a / 0x6134706D), 48000 Hz, stereo, fltp, 124 kb/s (default)\n",
      "    Metadata:\n",
      "      creation_time   : 2015-09-13T13:33:16.000000Z\n",
      "      handler_name    : SoundHandle\n",
      "      vendor_id       : [0][0][0][0]\n",
      "Output #0, mp4, to 'D:\\Windows\\Pulpit\\ZdjÄ™cia\\heif\\Wrak_Race_heif\\20150913_153214_fixed.mp4':\n",
      "  Metadata:\n",
      "    major_brand     : isom\n",
      "    minor_version   : 0\n",
      "    compatible_brands: isom3gp4\n",
      "    creation_time   : 2015-09-13T13:33:16.000000Z\n",
      "    encoder         : Lavf60.3.100\n",
      "  Stream #0:0(eng): Video: h264 (Baseline) (avc1 / 0x31637661), yuv420p(progressive), 640x480, q=2-31, 3071 kb/s, 29.91 fps, 29.92 tbr, 90k tbn (default)\n",
      "    Metadata:\n",
      "      creation_time   : 2015-09-13T13:33:16.000000Z\n",
      "      handler_name    : VideoHandle\n",
      "      vendor_id       : [0][0][0][0]\n",
      "      encoder         :                                \n",
      "  Stream #0:1(eng): Audio: aac (LC) (mp4a / 0x6134706D), 48000 Hz, stereo, fltp, 124 kb/s (default)\n",
      "    Metadata:\n",
      "      creation_time   : 2015-09-13T13:33:16.000000Z\n",
      "      handler_name    : SoundHandle\n",
      "      vendor_id       : [0][0][0][0]\n",
      "Stream mapping:\n",
      "  Stream #1:0 -> #0:0 (copy)\n",
      "  Stream #1:1 -> #0:1 (copy)\n",
      "Press [q] to stop, [?] for help\n",
      "frame=    0 fps=0.0 q=-1.0 size=       0kB time=00:00:00.00 bitrate=N/A speed=N/A    \n",
      "frame= 1809 fps=0.0 q=-1.0 Lsize=   23669kB time=00:01:00.81 bitrate=3188.4kbits/s speed= 208x    \n",
      "video:22676kB audio:928kB subtitle:0kB other streams:0kB global headers:0kB muxing overhead: 0.278416%\n",
      "\n",
      "ffmpeg -i F:\\Zdjęcia\\Wrak_Race\\20150913_155238.mp4 -i D:\\Windows\\Pulpit\\Zdjęcia\\heif\\Wrak_Race_heif\\20150913_155238.mp4 -map 1 -map_metadata 0 -c copy D:\\Windows\\Pulpit\\Zdjęcia\\heif\\Wrak_Race_heif\\20150913_155238_fixed.mp4\n",
      "\n",
      "ffmpeg version 6.0-full_build-www.gyan.dev Copyright (c) 2000-2023 the FFmpeg developers\n",
      "  built with gcc 12.2.0 (Rev10, Built by MSYS2 project)\n",
      "  configuration: --enable-gpl --enable-version3 --enable-static --disable-w32threads --disable-autodetect --enable-fontconfig --enable-iconv --enable-gnutls --enable-libxml2 --enable-gmp --enable-bzlib --enable-lzma --enable-libsnappy --enable-zlib --enable-librist --enable-libsrt --enable-libssh --enable-libzmq --enable-avisynth --enable-libbluray --enable-libcaca --enable-sdl2 --enable-libaribb24 --enable-libdav1d --enable-libdavs2 --enable-libuavs3d --enable-libzvbi --enable-librav1e --enable-libsvtav1 --enable-libwebp --enable-libx264 --enable-libx265 --enable-libxavs2 --enable-libxvid --enable-libaom --enable-libjxl --enable-libopenjpeg --enable-libvpx --enable-mediafoundation --enable-libass --enable-frei0r --enable-libfreetype --enable-libfribidi --enable-liblensfun --enable-libvidstab --enable-libvmaf --enable-libzimg --enable-amf --enable-cuda-llvm --enable-cuvid --enable-ffnvcodec --enable-nvdec --enable-nvenc --enable-d3d11va --enable-dxva2 --enable-libvpl --enable-libshaderc --enable-vulkan --enable-libplacebo --enable-opencl --enable-libcdio --enable-libgme --enable-libmodplug --enable-libopenmpt --enable-libopencore-amrwb --enable-libmp3lame --enable-libshine --enable-libtheora --enable-libtwolame --enable-libvo-amrwbenc --enable-libilbc --enable-libgsm --enable-libopencore-amrnb --enable-libopus --enable-libspeex --enable-libvorbis --enable-ladspa --enable-libbs2b --enable-libflite --enable-libmysofa --enable-librubberband --enable-libsoxr --enable-chromaprint\n",
      "  libavutil      58.  2.100 / 58.  2.100\n",
      "  libavcodec     60.  3.100 / 60.  3.100\n",
      "  libavformat    60.  3.100 / 60.  3.100\n",
      "  libavdevice    60.  1.100 / 60.  1.100\n",
      "  libavfilter     9.  3.100 /  9.  3.100\n",
      "  libswscale      7.  1.100 /  7.  1.100\n",
      "  libswresample   4. 10.100 /  4. 10.100\n",
      "  libpostproc    57.  1.100 / 57.  1.100\n",
      "Input #0, mov,mp4,m4a,3gp,3g2,mj2, from 'F:\\ZdjÄ™cia\\Wrak_Race\\20150913_155238.mp4':\n",
      "  Metadata:\n",
      "    major_brand     : isom\n",
      "    minor_version   : 0\n",
      "    compatible_brands: isom3gp4\n",
      "    creation_time   : 2015-09-13T13:53:27.000000Z\n",
      "  Duration: 00:00:47.40, start: 0.000000, bitrate: 3194 kb/s\n",
      "  Stream #0:0[0x1](eng): Video: h264 (Baseline) (avc1 / 0x31637661), yuv420p(progressive), 640x480, 3073 kb/s, 29.92 fps, 29.92 tbr, 90k tbn (default)\n",
      "    Metadata:\n",
      "      creation_time   : 2015-09-13T13:53:27.000000Z\n",
      "      handler_name    : VideoHandle\n",
      "      vendor_id       : [0][0][0][0]\n",
      "      encoder         :                                \n",
      "  Stream #0:1[0x2](eng): Audio: aac (LC) (mp4a / 0x6134706D), 48000 Hz, stereo, fltp, 128 kb/s (default)\n",
      "    Metadata:\n",
      "      creation_time   : 2015-09-13T13:53:27.000000Z\n",
      "      handler_name    : SoundHandle\n",
      "      vendor_id       : [0][0][0][0]\n",
      "Input #1, mov,mp4,m4a,3gp,3g2,mj2, from 'D:\\Windows\\Pulpit\\ZdjÄ™cia\\heif\\Wrak_Race_heif\\20150913_155238.mp4':\n",
      "  Metadata:\n",
      "    major_brand     : isom\n",
      "    minor_version   : 0\n",
      "    compatible_brands: isom3gp4\n",
      "    creation_time   : 2015-09-13T13:53:27.000000Z\n",
      "  Duration: 00:00:47.40, start: 0.000000, bitrate: 3194 kb/s\n",
      "  Stream #1:0[0x1](eng): Video: h264 (Baseline) (avc1 / 0x31637661), yuv420p(progressive), 640x480, 3073 kb/s, 29.92 fps, 29.92 tbr, 90k tbn (default)\n",
      "    Metadata:\n",
      "      creation_time   : 2015-09-13T13:53:27.000000Z\n",
      "      handler_name    : VideoHandle\n",
      "      vendor_id       : [0][0][0][0]\n",
      "      encoder         :                                \n",
      "  Stream #1:1[0x2](eng): Audio: aac (LC) (mp4a / 0x6134706D), 48000 Hz, stereo, fltp, 128 kb/s (default)\n",
      "    Metadata:\n",
      "      creation_time   : 2015-09-13T13:53:27.000000Z\n",
      "      handler_name    : SoundHandle\n",
      "      vendor_id       : [0][0][0][0]\n",
      "Output #0, mp4, to 'D:\\Windows\\Pulpit\\ZdjÄ™cia\\heif\\Wrak_Race_heif\\20150913_155238_fixed.mp4':\n",
      "  Metadata:\n",
      "    major_brand     : isom\n",
      "    minor_version   : 0\n",
      "    compatible_brands: isom3gp4\n",
      "    creation_time   : 2015-09-13T13:53:27.000000Z\n",
      "    encoder         : Lavf60.3.100\n",
      "  Stream #0:0(eng): Video: h264 (Baseline) (avc1 / 0x31637661), yuv420p(progressive), 640x480, q=2-31, 3073 kb/s, 29.92 fps, 29.92 tbr, 90k tbn (default)\n",
      "    Metadata:\n",
      "      creation_time   : 2015-09-13T13:53:27.000000Z\n",
      "      handler_name    : VideoHandle\n",
      "      vendor_id       : [0][0][0][0]\n",
      "      encoder         :                                \n",
      "  Stream #0:1(eng): Audio: aac (LC) (mp4a / 0x6134706D), 48000 Hz, stereo, fltp, 128 kb/s (default)\n",
      "    Metadata:\n",
      "      creation_time   : 2015-09-13T13:53:27.000000Z\n",
      "      handler_name    : SoundHandle\n",
      "      vendor_id       : [0][0][0][0]\n",
      "Stream mapping:\n",
      "  Stream #1:0 -> #0:0 (copy)\n",
      "  Stream #1:1 -> #0:1 (copy)\n",
      "Press [q] to stop, [?] for help\n",
      "frame=    0 fps=0.0 q=-1.0 size=       0kB time=00:00:00.00 bitrate=N/A speed=   0x    \n",
      "frame= 1413 fps=0.0 q=-1.0 Lsize=   18509kB time=00:00:47.38 bitrate=3200.2kbits/s speed= 204x    \n",
      "video:17713kB audio:745kB subtitle:0kB other streams:0kB global headers:0kB muxing overhead: 0.279735%\n",
      "\n",
      "ffmpeg -i F:\\Zdjęcia\\Wrak_Race\\20150913_160321.mp4 -i D:\\Windows\\Pulpit\\Zdjęcia\\heif\\Wrak_Race_heif\\20150913_160321.mp4 -map 1 -map_metadata 0 -c copy D:\\Windows\\Pulpit\\Zdjęcia\\heif\\Wrak_Race_heif\\20150913_160321_fixed.mp4\n",
      "\n",
      "ffmpeg version 6.0-full_build-www.gyan.dev Copyright (c) 2000-2023 the FFmpeg developers\n",
      "  built with gcc 12.2.0 (Rev10, Built by MSYS2 project)\n",
      "  configuration: --enable-gpl --enable-version3 --enable-static --disable-w32threads --disable-autodetect --enable-fontconfig --enable-iconv --enable-gnutls --enable-libxml2 --enable-gmp --enable-bzlib --enable-lzma --enable-libsnappy --enable-zlib --enable-librist --enable-libsrt --enable-libssh --enable-libzmq --enable-avisynth --enable-libbluray --enable-libcaca --enable-sdl2 --enable-libaribb24 --enable-libdav1d --enable-libdavs2 --enable-libuavs3d --enable-libzvbi --enable-librav1e --enable-libsvtav1 --enable-libwebp --enable-libx264 --enable-libx265 --enable-libxavs2 --enable-libxvid --enable-libaom --enable-libjxl --enable-libopenjpeg --enable-libvpx --enable-mediafoundation --enable-libass --enable-frei0r --enable-libfreetype --enable-libfribidi --enable-liblensfun --enable-libvidstab --enable-libvmaf --enable-libzimg --enable-amf --enable-cuda-llvm --enable-cuvid --enable-ffnvcodec --enable-nvdec --enable-nvenc --enable-d3d11va --enable-dxva2 --enable-libvpl --enable-libshaderc --enable-vulkan --enable-libplacebo --enable-opencl --enable-libcdio --enable-libgme --enable-libmodplug --enable-libopenmpt --enable-libopencore-amrwb --enable-libmp3lame --enable-libshine --enable-libtheora --enable-libtwolame --enable-libvo-amrwbenc --enable-libilbc --enable-libgsm --enable-libopencore-amrnb --enable-libopus --enable-libspeex --enable-libvorbis --enable-ladspa --enable-libbs2b --enable-libflite --enable-libmysofa --enable-librubberband --enable-libsoxr --enable-chromaprint\n",
      "  libavutil      58.  2.100 / 58.  2.100\n",
      "  libavcodec     60.  3.100 / 60.  3.100\n",
      "  libavformat    60.  3.100 / 60.  3.100\n",
      "  libavdevice    60.  1.100 / 60.  1.100\n",
      "  libavfilter     9.  3.100 /  9.  3.100\n",
      "  libswscale      7.  1.100 /  7.  1.100\n",
      "  libswresample   4. 10.100 /  4. 10.100\n",
      "  libpostproc    57.  1.100 / 57.  1.100\n",
      "Input #0, mov,mp4,m4a,3gp,3g2,mj2, from 'F:\\ZdjÄ™cia\\Wrak_Race\\20150913_160321.mp4':\n",
      "  Metadata:\n",
      "    major_brand     : isom\n",
      "    minor_version   : 0\n",
      "    compatible_brands: isom3gp4\n",
      "    creation_time   : 2015-09-13T14:03:35.000000Z\n",
      "  Duration: 00:00:13.16, start: 0.000000, bitrate: 3156 kb/s\n",
      "  Stream #0:0[0x1](eng): Video: h264 (Baseline) (avc1 / 0x31637661), yuv420p(progressive), 640x480, 3072 kb/s, 29.80 fps, 29.92 tbr, 90k tbn (default)\n",
      "    Metadata:\n",
      "      creation_time   : 2015-09-13T14:03:35.000000Z\n",
      "      handler_name    : VideoHandle\n",
      "      vendor_id       : [0][0][0][0]\n",
      "      encoder         :                                \n",
      "  Stream #0:1[0x2](eng): Audio: aac (LC) (mp4a / 0x6134706D), 48000 Hz, stereo, fltp, 124 kb/s (default)\n",
      "    Metadata:\n",
      "      creation_time   : 2015-09-13T14:03:35.000000Z\n",
      "      handler_name    : SoundHandle\n",
      "      vendor_id       : [0][0][0][0]\n",
      "Input #1, mov,mp4,m4a,3gp,3g2,mj2, from 'D:\\Windows\\Pulpit\\ZdjÄ™cia\\heif\\Wrak_Race_heif\\20150913_160321.mp4':\n",
      "  Metadata:\n",
      "    major_brand     : isom\n",
      "    minor_version   : 0\n",
      "    compatible_brands: isom3gp4\n",
      "    creation_time   : 2015-09-13T14:03:35.000000Z\n",
      "  Duration: 00:00:13.16, start: 0.000000, bitrate: 3156 kb/s\n",
      "  Stream #1:0[0x1](eng): Video: h264 (Baseline) (avc1 / 0x31637661), yuv420p(progressive), 640x480, 3072 kb/s, 29.80 fps, 29.92 tbr, 90k tbn (default)\n",
      "    Metadata:\n",
      "      creation_time   : 2015-09-13T14:03:35.000000Z\n",
      "      handler_name    : VideoHandle\n",
      "      vendor_id       : [0][0][0][0]\n",
      "      encoder         :                                \n",
      "  Stream #1:1[0x2](eng): Audio: aac (LC) (mp4a / 0x6134706D), 48000 Hz, stereo, fltp, 124 kb/s (default)\n",
      "    Metadata:\n",
      "      creation_time   : 2015-09-13T14:03:35.000000Z\n",
      "      handler_name    : SoundHandle\n",
      "      vendor_id       : [0][0][0][0]\n",
      "Output #0, mp4, to 'D:\\Windows\\Pulpit\\ZdjÄ™cia\\heif\\Wrak_Race_heif\\20150913_160321_fixed.mp4':\n",
      "  Metadata:\n",
      "    major_brand     : isom\n",
      "    minor_version   : 0\n",
      "    compatible_brands: isom3gp4\n",
      "    creation_time   : 2015-09-13T14:03:35.000000Z\n",
      "    encoder         : Lavf60.3.100\n",
      "  Stream #0:0(eng): Video: h264 (Baseline) (avc1 / 0x31637661), yuv420p(progressive), 640x480, q=2-31, 3072 kb/s, 29.80 fps, 29.92 tbr, 90k tbn (default)\n",
      "    Metadata:\n",
      "      creation_time   : 2015-09-13T14:03:35.000000Z\n",
      "      handler_name    : VideoHandle\n",
      "      vendor_id       : [0][0][0][0]\n",
      "      encoder         :                                \n",
      "  Stream #0:1(eng): Audio: aac (LC) (mp4a / 0x6134706D), 48000 Hz, stereo, fltp, 124 kb/s (default)\n",
      "    Metadata:\n",
      "      creation_time   : 2015-09-13T14:03:35.000000Z\n",
      "      handler_name    : SoundHandle\n",
      "      vendor_id       : [0][0][0][0]\n",
      "Stream mapping:\n",
      "  Stream #1:0 -> #0:0 (copy)\n",
      "  Stream #1:1 -> #0:1 (copy)\n",
      "Press [q] to stop, [?] for help\n",
      "frame=    0 fps=0.0 q=-1.0 size=       0kB time=00:00:00.00 bitrate=N/A speed=   0x    \n",
      "frame=  387 fps=0.0 q=-1.0 Lsize=    5079kB time=00:00:13.14 bitrate=3166.2kbits/s speed= 168x    \n",
      "video:4864kB audio:200kB subtitle:0kB other streams:0kB global headers:0kB muxing overhead: 0.299375%\n",
      "\n"
     ]
    }
   ],
   "source": [
    "dir_name = 'Wrak_Race'\n",
    "src_path = Path(rf'F:\\Zdjęcia\\{dir_name}')\n",
    "dst_path = Path(rf'D:\\Windows\\Pulpit\\Zdjęcia\\heif\\{dir_name}_heif')\n",
    "\n",
    "for file in src_path.iterdir():\n",
    "    if file.suffix.lower() in {'.mp4', '.mov', '.mts'}:\n",
    "        dst_file = dst_path / f\"{file.stem}.mp4\"\n",
    "        # if not dst_file.exists():\n",
    "        #     dst_file = dst_file.with_stem(dst_file.stem.upper().replace(' ', ''))\n",
    "        if file.name == 'WP_20170420_21_02_28_Pro.mp4':\n",
    "            continue\n",
    "        assert dst_file.exists(), f'{dst_file.resolve()} not exists'\n",
    "        out_file = dst_file.with_stem(f\"{dst_file.stem}_fixed\")\n",
    "        # if not dst_file.exists():\n",
    "        #     continue\n",
    "        call_str = f'ffmpeg -i {file.resolve()} -i {dst_file} -map 1 ' \\\n",
    "                   f'-map_metadata 0 -c copy {out_file}'\n",
    "\n",
    "        print(call_str)\n",
    "        result = subprocess.run(call_str, shell=True, capture_output=True, text=True)\n",
    "        print(result.stdout)\n",
    "        print(result.stderr)\n",
    "        shutil.copystat(file, out_file, follow_symlinks=True)\n",
    "        dst_file.unlink()\n",
    "        shutil.move(out_file, dst_file)"
   ],
   "metadata": {
    "collapsed": false
   }
  },
  {
   "cell_type": "code",
   "execution_count": 39,
   "outputs": [],
   "source": [
    "rn_path = Path(r'F:\\Zdjęcia\\Tor')\n",
    "for file in rn_path.iterdir():\n",
    "    if file.suffix == '.mp4':\n",
    "        shutil.move(file, file.with_stem(file.stem.upper().replace(' ', '_')))"
   ],
   "metadata": {
    "collapsed": false
   }
  }
 ],
 "metadata": {
  "kernelspec": {
   "display_name": "Python 3",
   "language": "python",
   "name": "python3"
  },
  "language_info": {
   "codemirror_mode": {
    "name": "ipython",
    "version": 2
   },
   "file_extension": ".py",
   "mimetype": "text/x-python",
   "name": "python",
   "nbconvert_exporter": "python",
   "pygments_lexer": "ipython2",
   "version": "2.7.6"
  }
 },
 "nbformat": 4,
 "nbformat_minor": 0
}
